:FULLY-SPECIFIED
:FORCE-ALL-JOINTS-BE-3DOF
:DEGREES
102
root -1.78108 16.4079 -36.0666 3.67713 23.8888 0.477986
lfemur -14.2453 -2.17937 -10.8451
ltibia 41.2491 -0 0
lfoot -20.5344 12.4025 -0.353476
ltoes -21.0901 0 0
rfemur -28.6389 -1.25523 13.454
rtibia 45.2825 -0 0
rfoot -16.8069 0.588714 0.506833
rtoes -18.1155 0 0
lowerback 10.0844 1.60347 -4.29567
upperback -2.40465 1.73248 1.46816
thorax -8.20962 1.09838 3.86713
lowerneck -4.72724 -3.4923 -5.90805
upperneck 5.03814 -4.5623 5.08908
head 2.77459 -2.23071 2.54847
lclavicle -1.7442e-16 -6.71879e-15 9.39313e-32
lhumerus -18.4437 -17.1494 91.9654
lradius 33.0276 -0 0
lwrist -26.6931 0 0
lhand -27.9486 33.0954 0.0633366
lfingers 7.12502 -0 0
lthumb -1.33629 63.0665 0.0612231
rclavicle -1.7442e-16 -6.71879e-15 9.39313e-32
rhumerus -23.719 11.928 -79.2327
rradius 56.7303 -0 0
rwrist -9.1267 0 0
rhand 6.59443 -21.2815 3.35299
rfingers 7.12502 -0 0
rthumb 17.178 -58.3177 -1.73554
103
root -1.76579 16.4024 -36.0639 3.68548 24.2052 0.523438
lfemur -14.1947 -2.15596 -10.8896
ltibia 41.2962 -0 0
lfoot -20.5701 12.4758 -0.356311
ltoes -21.024 0 0
rfemur -28.7624 -1.27502 13.4391
rtibia 45.347 -0 0
rfoot -16.7243 0.633976 0.510864
rtoes -18.0778 0 0
lowerback 10.1245 1.59186 -4.32628
upperback -2.39506 1.71181 1.47056
thorax -8.21986 1.08997 3.89156
lowerneck -4.72777 -3.48511 -5.89588
upperneck 5.04239 -4.55249 5.07107
head 2.77461 -2.22608 2.54067
lclavicle -2.00796e-16 -6.68644e-15 9.44062e-32
lhumerus -18.3311 -17.3054 91.9839
lradius 33.1222 -0 0
lwrist -26.642 0 0
lhand -27.937 33.1357 0.0638373
lfingers 7.12502 -0 0
lthumb -1.32508 63.1069 0.0617071
rclavicle -2.00796e-16 -6.68644e-15 9.44062e-32
rhumerus -23.5972 12.0193 -79.1922
rradius 57.04 -0 0
rwrist -9.29527 0 0
rhand 6.99593 -21.2198 3.38335
rfingers 7.12502 -0 0
rthumb 17.3706 -58.3483 -1.74774
104
root -1.75044 16.3969 -36.0611 3.69415 24.5225 0.569188
lfemur -14.144 -2.13244 -10.9342
ltibia 41.3435 -0 0
lfoot -20.606 12.5493 -0.359109
ltoes -20.9578 0 0
rfemur -28.8862 -1.2949 13.4241
rtibia 45.4117 -0 0
rfoot -16.6414 0.679377 0.514842
rtoes -18.0399 0 0
lowerback 10.1648 1.58023 -4.35699
upperback -2.38545 1.69109 1.47297
thorax -8.23014 1.08153 3.91606
lowerneck -4.72831 -3.4779 -5.88367
upperneck 5.04665 -4.54265 5.05301
head 2.77464 -2.22143 2.53285
lclavicle -2.27262e-16 -6.65399e-15 9.48695e-32
lhumerus -18.2181 -17.4618 92.0021
lradius 33.217 -0 0
lwrist -26.5907 0 0
lhand -27.9254 33.1762 0.0643314
lfingers 7.12502 -0 0
lthumb -1.31384 63.1474 0.0621847
rclavicle -2.27262e-16 -6.65399e-15 9.48695e-32
rhumerus -23.4749 12.1109 -79.1514
rradius 57.3507 -0 0
rwrist -9.46435 0 0
rhand 7.39867 -21.1578 3.41335
rfingers 7.12502 -0 0
rthumb 17.5638 -58.3792 -1.75994
105
root -1.73506 16.3914 -36.0584 3.70315 24.8408 0.61524
lfemur -14.0932 -2.10882 -10.979
ltibia 41.3909 -0 0
lfoot -20.6419 12.623 -0.361869
ltoes -20.8913 0 0
rfemur -29.0104 -1.31487 13.4091
rtibia 45.4765 -0 0
rfoot -16.5582 0.724916 0.518766
rtoes -18.0019 0 0
lowerback 10.2052 1.5686 -4.3878
upperback -2.37581 1.6703 1.47538
thorax -8.24045 1.07308 3.94064
lowerneck -4.72884 -3.47067 -5.87143
upperneck 5.05092 -4.53278 5.0349
head 2.77466 -2.21677 2.525
lclavicle -2.53818e-16 -6.62143e-15 9.53212e-32
lhumerus -18.1047 -17.6188 92.0201
lradius 33.3122 -0 0
lwrist -26.5393 0 0
lhand -27.9137 33.2168 0.0648187
lfingers 7.12502 -0 0
lthumb -1.30257 63.188 0.0626557
rclavicle -2.53818e-16 -6.62143e-15 9.53212e-32
rhumerus -23.3522 12.2026 -79.1102
rradius 57.6623 -0 0
rwrist -9.63392 0 0
rhand 7.80264 -21.0953 3.44298
rfingers 7.12502 -0 0
rthumb 17.7576 -58.4105 -1.77213
106
root -1.71963 16.3859 -36.0556 3.71248 25.1599 0.661598
lfemur -14.0422 -2.08509 -11.0238
ltibia 41.4384 -0 0
lfoot -20.678 12.6969 -0.36459
ltoes -20.8247 0 0
rfemur -29.1349 -1.33493 13.3941
rtibia 45.5415 -0 0
rfoot -16.4749 0.770591 0.522635
rtoes -17.9638 0 0
lowerback 10.2458 1.55695 -4.4187
upperback -2.36614 1.64945 1.47779
thorax -8.25079 1.06461 3.96529
lowerneck -4.72938 -3.46342 -5.85915
upperneck 5.05521 -4.52288 5.01674
head 2.77469 -2.2121 2.51714
lclavicle -2.80464e-16 -6.58878e-15 9.57614e-32
lhumerus -17.9909 -17.7762 92.0378
lradius 33.4076 -0 0
lwrist -26.4878 0 0
lhand -27.902 33.2575 0.0652991
lfingers 7.12502 -0 0
lthumb -1.29126 63.2287 0.0631202
rclavicle -2.80464e-16 -6.58878e-15 9.57614e-32
rhumerus -23.2289 12.2945 -79.0687
rradius 57.9748 -0 0
rwrist -9.80397 0 0
rhand 8.2078 -21.0326 3.47224
rfingers 7.12502 -0 0
rthumb 17.952 -58.4421 -1.78432
107
root -1.70416 16.3803 -36.0529 3.72215 25.4799 0.708265
lfemur -13.9911 -2.06125 -11.0687
ltibia 41.4861 -0 0
lfoot -20.7141 12.7711 -0.367272
ltoes -20.7579 0 0
rfemur -29.2598 -1.35507 13.3792
rtibia 45.6067 -0 0
rfoot -16.3912 0.816398 0.526449
rtoes -17.9256 0 0
lowerback 10.2864 1.54529 -4.4497
upperback -2.35645 1.62855 1.48021
thorax -8.26116 1.05611 3.99001
lowerneck -4.72991 -3.45615 -5.84684
upperneck 5.0595 -4.51295 4.99852
head 2.77471 -2.20741 2.50925
lclavicle -3.07198e-16 -6.55602e-15 9.619e-32
lhumerus -17.8768 -17.9341 92.0553
lradius 33.5033 -0 0
lwrist -26.4361 0 0
lhand -27.8902 33.2983 0.0657727
lfingers 7.12502 -0 0
lthumb -1.27992 63.2695 0.0635779
rclavicle -3.07198e-16 -6.55602e-15 9.619e-32
rhumerus -23.1053 12.3865 -79.0269
rradius 58.2881 -0 0
rwrist -9.97451 0 0
rhand 8.61416 -20.9694 3.50113
rfingers 7.12502 -0 0
rthumb 18.1471 -58.474 -1.79651
108
root -1.68864 16.3747 -36.0501 3.73216 25.8008 0.755244
lfemur -13.9399 -2.03731 -11.1137
ltibia 41.5339 -0 0
lfoot -20.7504 12.8454 -0.369915
ltoes -20.6909 0 0
rfemur -29.385 -1.3753 13.3642
rtibia 45.6721 -0 0
rfoot -16.3073 0.862337 0.530207
rtoes -17.8873 0 0
lowerback 10.3272 1.53362 -4.48079
upperback -2.34673 1.60759 1.48262
thorax -8.27156 1.0476 4.01479
lowerneck -4.73044 -3.44886 -5.8345
upperneck 5.0638 -4.503 4.98026
head 2.77474 -2.20271 2.50134
lclavicle -3.3402e-16 -6.52316e-15 9.66069e-32
lhumerus -17.7623 -18.0924 92.0725
lradius 33.5993 -0 0
lwrist -26.3843 0 0
lhand -27.8785 33.3392 0.0662392
lfingers 7.12502 -0 0
lthumb -1.26855 63.3105 0.0640289
rclavicle -3.3402e-16 -6.52316e-15 9.66069e-32
rhumerus -22.9811 12.4787 -78.9847
rradius 58.6023 -0 0
rwrist -10.1455 0 0
rhand 9.02168 -20.9059 3.52963
rfingers 7.12502 -0 0
rthumb 18.3427 -58.5063 -1.80869
109
root -1.67308 16.3692 -36.0474 3.74252 26.1225 0.80254
lfemur -13.8885 -2.01326 -11.1588
ltibia 41.5819 -0 0
lfoot -20.7867 12.9199 -0.372517
ltoes -20.6238 0 0
rfemur -29.5106 -1.39562 13.3492
rtibia 45.7376 -0 0
rfoot -16.2232 0.908404 0.533907
rtoes -17.8489 0 0
lowerback 10.368 1.52195 -4.51196
upperback -2.33699 1.58658 1.48505
thorax -8.282 1.03907 4.03965
lowerneck -4.73098 -3.44155 -5.82212
upperneck 5.0681 -4.49302 4.96195
head 2.77476 -2.198 2.4934
lclavicle -3.60929e-16 -6.49021e-15 9.7012e-32
lhumerus -17.6475 -18.2512 92.0894
lradius 33.6955 -0 0
lwrist -26.3323 0 0
lhand -27.8667 33.3803 0.0666986
lfingers 7.12502 -0 0
lthumb -1.25715 63.3516 0.064473
rclavicle -3.60929e-16 -6.49021e-15 9.7012e-32
rhumerus -22.8565 12.5711 -78.9423
rradius 58.9173 -0 0
rwrist -10.317 0 0
rhand 9.43034 -20.842 3.55773
rfingers 7.12502 -0 0
rthumb 18.5389 -58.5391 -1.82088
110
root -1.65749 16.3636 -36.0446 3.75323 26.4451 0.850154
lfemur -13.8371 -1.98912 -11.2041
ltibia 41.6299 -0 0
lfoot -20.8232 12.9946 -0.375078
ltoes -20.5564 0 0
rfemur -29.6364 -1.41602 13.3343
rtibia 45.8033 -0 0
rfoot -16.1389 0.954596 0.53755
rtoes -17.8104 0 0
lowerback 10.409 1.51026 -4.54323
upperback -2.32722 1.56551 1.48747
thorax -8.29246 1.03053 4.06457
lowerneck -4.73151 -3.43422 -5.80972
upperneck 5.07242 -4.48301 4.94359
head 2.77478 -2.19328 2.48545
lclavicle -3.87925e-16 -6.45716e-15 9.74054e-32
lhumerus -17.5323 -18.4105 92.1061
lradius 33.792 -0 0
lwrist -26.2802 0 0
lhand -27.8548 33.4214 0.0671509
lfingers 7.12502 -0 0
lthumb -1.24572 63.3928 0.0649102
rclavicle -3.87925e-16 -6.45716e-15 9.74054e-32
rhumerus -22.7315 12.6636 -78.8994
rradius 59.2331 -0 0
rwrist -10.4889 0 0
rhand 9.84013 -20.7778 3.58544
rfingers 7.12502 -0 0
rthumb 18.7356 -58.5722 -1.83307
111
root -1.64185 16.358 -36.0418 3.7643 26.7685 0.898093
lfemur -13.7855 -1.96487 -11.2494
ltibia 41.6781 -0 0
lfoot -20.8597 13.0696 -0.377599
ltoes -20.4889 0 0
rfemur -29.7626 -1.43649 13.3193
rtibia 45.8691 -0 0
rfoot -16.0543 1.00091 0.541135
rtoes -17.7717 0 0
lowerback 10.4501 1.49857 -4.57459
upperback -2.31743 1.54438 1.4899
thorax -8.30296 1.02196 4.08955
lowerneck -4.73204 -3.42687 -5.79728
upperneck 5.07675 -4.47298 4.92519
head 2.77481 -2.18855 2.47748
lclavicle -4.15008e-16 -6.42402e-15 9.7787e-32
lhumerus -17.4168 -18.5702 92.1225
lradius 33.8887 -0 0
lwrist -26.2279 0 0
lhand -27.8429 33.4627 0.0675958
lfingers 7.12502 -0 0
lthumb -1.23425 63.4341 0.0653403
rclavicle -4.15008e-16 -6.42402e-15 9.7787e-32
rhumerus -22.606 12.7562 -78.8563
rradius 59.5497 -0 0
rwrist -10.6613 0 0
rhand 10.251 -20.7132 3.61274
rfingers 7.12502 -0 0
rthumb 18.933 -58.6057 -1.84526
112
root -1.62617 16.3523 -36.039 3.77574 27.0927 0.946358
lfemur -13.7339 -1.94052 -11.2948
ltibia 41.7264 -0 0
lfoot -20.8964 13.1447 -0.380077
ltoes -20.4212 0 0
rfemur -29.8891 -1.45706 13.3044
rtibia 45.9351 -0 0
rfoot -15.9696 1.04735 0.544661
rtoes -17.733 0 0
lowerback 10.4913 1.48688 -4.60603
upperback -2.30762 1.52321 1.49233
thorax -8.31348 1.01338 4.1146
lowerneck -4.73257 -3.41951 -5.78481
upperneck 5.08108 -4.46292 4.90674
head 2.77483 -2.1838 2.46948
lclavicle -4.42176e-16 -6.39078e-15 9.81567e-32
lhumerus -17.301 -18.7303 92.1386
lradius 33.9857 -0 0
lwrist -26.1756 0 0
lhand -27.831 33.504 0.0680334
lfingers 7.12502 -0 0
lthumb -1.22276 63.4754 0.0657633
rclavicle -4.42176e-16 -6.39078e-15 9.81567e-32
rhumerus -22.48 12.849 -78.8128
rradius 59.8671 -0 0
rwrist -10.8341 0 0
rhand 10.663 -20.6483 3.63962
rfingers 7.12502 -0 0
rthumb 19.1308 -58.6396 -1.85745
